# xmcd CD database file
#
# Track frame offsets:
#	150
#	18290
#	34940
#	47583
#	57434
#	76769
#	93950
#	111859
#	129778
#	146283
#	161168
#
# Disc length: 2354 seconds
#
# Revision: 1
# Processed by: cddbd v1.5.2PL0 Copyright (c) Steve Scherf et al.
# Submitted via: CDex 1.70beta2
#
DISCID=8109300b
DTITLE=Dub Miller - Post Country
DYEAR=2002
DGENRE=Country
TTITLE0=Insanity and Texas
TTITLE1=Cowboys and Sailors
TTITLE2=That's When I'm Coming Home
TTITLE3=The Train Song
TTITLE4=Reaching for the Stars (and Playing for the Door)
TTITLE5=The Little Cowboy's Prayer
TTITLE6=Honky Tonks and Dancehalls
TTITLE7=Hard Headed Woman
TTITLE8=21st Century Cowboy
TTITLE9=I'd Do Anything
TTITLE10=Honky Tonk Church
EXTD=YEAR: 2002
EXTT0=
EXTT1=
EXTT2=
EXTT3=
EXTT4=
EXTT5=
EXTT6=
EXTT7=
EXTT8=
EXTT9=
EXTT10=
PLAYORDER=
